<svg width="39" height="36" viewBox="0 0 39 36" fill="none" xmlns="http://www.w3.org/2000/svg">
<path d="M18.3655 35.8075V30.1575H20.6345V35.8075H18.3655ZM0 17.442V15.173H5.65V17.442H0ZM33.35 17.442V15.173H39V17.442H33.35ZM32.2385 30.946L28.2925 27L29.923 25.369L33.869 29.315L32.2385 30.946ZM6.7615 30.946L5.131 29.315L9.077 25.369L10.7075 27L6.7615 30.946ZM19.5 24.6575C17.1923 24.6575 15.2238 23.8427 13.5945 22.213C11.9648 20.5837 11.15 18.6152 11.15 16.3075C11.15 14.7638 11.5032 13.3708 12.2095 12.1285C12.9162 10.8862 13.8963 9.88684 15.15 9.1305V0H23.85V9.1305C25.1037 9.88684 26.0838 10.8862 26.7905 12.1285C27.4968 13.3708 27.85 14.7638 27.85 16.3075C27.85 18.6152 27.0352 20.5837 25.4055 22.213C23.7762 23.8427 21.8077 24.6575 19.5 24.6575ZM17.419 8.3885C17.7563 8.2755 18.1 8.194 18.45 8.144C18.8 8.094 19.15 8.069 19.5 8.069C19.85 8.069 20.2 8.094 20.55 8.144C20.9 8.194 21.2437 8.2755 21.581 8.3885V2.269H17.419V8.3885ZM19.506 22.3885C21.1893 22.3885 22.6227 21.7948 23.806 20.6075C24.9893 19.4202 25.581 17.9848 25.581 16.3015C25.581 14.6182 24.9873 13.1848 23.8 12.0015C22.6127 10.8182 21.1773 10.2265 19.494 10.2265C17.8107 10.2265 16.3773 10.8202 15.194 12.0075C14.0107 13.1948 13.419 14.6302 13.419 16.3135C13.419 17.9968 14.0127 19.4302 15.2 20.6135C16.3873 21.7968 17.8227 22.3885 19.506 22.3885Z" fill="black"/>
</svg>
