<svg width="14" height="15" viewBox="0 0 14 15" fill="none" xmlns="http://www.w3.org/2000/svg">
<g clip-path="url(#clip0_502_4590)">
<path d="M11.7261 8.03503H0.66879C0.475584 8.03503 0.315817 7.97187 0.18949 7.84554C0.0631635 7.71921 0 7.55945 0 7.36624C0 7.17304 0.0631635 7.01327 0.18949 6.88694C0.315817 6.76062 0.475584 6.69745 0.66879 6.69745H11.7261L6.66561 1.63694C6.53185 1.50318 6.46497 1.34713 6.46497 1.16879C6.46497 0.990446 6.53185 0.834395 6.66561 0.700637C6.79936 0.566879 6.95541 0.5 7.13376 0.5C7.3121 0.5 7.46815 0.566879 7.60191 0.700637L13.7994 6.89809C13.8737 6.9724 13.9257 7.04671 13.9554 7.12102C13.9851 7.19533 14 7.27707 14 7.36624C14 7.45541 13.9851 7.53716 13.9554 7.61146C13.9257 7.68577 13.8737 7.76009 13.7994 7.8344L7.60191 14.0318C7.46815 14.1656 7.3121 14.2325 7.13376 14.2325C6.95541 14.2325 6.79936 14.1656 6.66561 14.0318C6.53185 13.8981 6.46497 13.742 6.46497 13.5637C6.46497 13.3854 6.53185 13.2293 6.66561 13.0955L11.7261 8.03503Z" fill="white"/>
</g>
<defs>
<clipPath id="clip0_502_4590">
<rect width="14" height="14" fill="white" transform="translate(0 0.5)"/>
</clipPath>
</defs>
</svg>
