<svg width="22" height="30" viewBox="0 0 22 30" fill="none" xmlns="http://www.w3.org/2000/svg">
<path d="M12.0543 4.346L12.0543 28.8655C12.0543 29.1962 11.9478 29.4678 11.7348 29.6805C11.5222 29.8935 11.2503 30 10.9193 30C10.5887 30 10.317 29.8935 10.1043 29.6805C9.89134 29.4678 9.78485 29.1962 9.78485 28.8655L9.78485 4.346L1.96184 12.169C1.73884 12.3923 1.47534 12.502 1.17134 12.498C0.867677 12.4943 0.597844 12.3745 0.361844 12.1385C0.138844 11.9155 0.0273438 11.652 0.0273438 11.348C0.0273438 11.0443 0.145345 10.7808 0.381345 10.5575L9.90784 1.0115C10.0745 0.857832 10.238 0.744331 10.3983 0.671C10.5587 0.598 10.7323 0.561499 10.9193 0.561499C11.1193 0.561499 11.2995 0.598 11.4598 0.671C11.6202 0.744331 11.7773 0.857832 11.9313 1.0115L21.4463 10.5075C21.6693 10.7308 21.7842 10.9943 21.7908 11.298C21.7972 11.602 21.6823 11.8718 21.4463 12.1075C21.2107 12.3435 20.939 12.4615 20.6313 12.4615C20.3233 12.4615 20.0515 12.3435 19.8158 12.1075L12.0543 4.346Z" fill="white"/>
</svg>
