<svg width="19" height="19" viewBox="0 0 19 19" fill="none" xmlns="http://www.w3.org/2000/svg">
<path d="M9.89943 11.3261L2.54089 18.6847C2.32964 18.8959 2.08905 19.0015 1.81912 19.0015C1.54919 19.0015 1.31447 18.8959 1.11495 18.6847C0.903701 18.4734 0.80101 18.2358 0.806879 17.9717C0.812747 17.7076 0.915438 17.4758 1.11495 17.2763L8.47349 9.90018L1.11495 2.52404C0.915438 2.32452 0.815681 2.09273 0.815681 1.82867C0.815681 1.56461 0.915438 1.32695 1.11495 1.1157C1.31447 0.904453 1.54919 0.798828 1.81912 0.798828C2.08905 0.798828 2.32964 0.898585 2.54089 1.0981L9.89943 8.47424L17.2756 1.0981C17.4751 0.898585 17.7098 0.798828 17.9797 0.798828C18.2497 0.798828 18.4903 0.904453 18.7015 1.1157C18.901 1.32695 18.9979 1.56461 18.992 1.82867C18.9861 2.09273 18.8834 2.32452 18.6839 2.52404L11.3254 9.90018L18.6839 17.2763C18.8834 17.4758 18.9832 17.7076 18.9832 17.9717C18.9832 18.2358 18.8834 18.4734 18.6839 18.6847C18.4844 18.8959 18.2497 19.0015 17.9797 19.0015C17.7098 19.0015 17.4751 18.8959 17.2756 18.6847L9.89943 11.3261Z" fill="white"/>
</svg>
