<svg width="34" height="38" viewBox="0 0 34 38" fill="none" xmlns="http://www.w3.org/2000/svg">
<path d="M9.081 35.711H24.9L27.473 25.519H6.4885L9.081 35.711ZM7.2885 37.9805L4.1385 25.519H29.823L26.673 37.9805H7.2885ZM2.2695 23.2495H31.7305V18.1345H2.2695V23.2495ZM17.0115 11.065C17.0115 8.34467 18.1718 5.88133 20.4925 3.675C22.8128 1.46833 25.35 0.243333 28.104 0C27.8883 2.53333 26.7908 4.85883 24.8115 6.9765C22.8322 9.0945 20.6002 10.41 18.1155 10.923V15.865H34V25.519H0V15.865H15.846V10.923C13.3617 10.41 11.138 9.09783 9.175 6.9865C7.21233 4.87483 6.10667 2.546 5.858 0C8.599 0.243333 11.1432 1.46633 13.4905 3.669C15.8378 5.87167 17.0115 8.337 17.0115 11.065Z" fill="white"/>
</svg>
