<svg width="50" height="51" viewBox="0 0 50 51" fill="none" xmlns="http://www.w3.org/2000/svg">
<circle cx="25" cy="25.5" r="25" fill="#393C41"/>
<path d="M18.9251 31.6992L16.1501 34.4742C15.8668 34.7576 15.5376 34.8247 15.1626 34.6757C14.7876 34.5267 14.6001 34.2429 14.6001 33.8242V16.7742C14.6001 16.2956 14.7846 15.8717 15.1536 15.5027C15.5226 15.1337 15.9464 14.9492 16.4251 14.9492H33.5751C34.0538 14.9492 34.4776 15.1337 34.8466 15.5027C35.2156 15.8717 35.4001 16.2956 35.4001 16.7742V29.8742C35.4001 30.3531 35.2156 30.7769 34.8466 31.1457C34.4776 31.5147 34.0538 31.6992 33.5751 31.6992H18.9251ZM20.6048 24.3242C20.9017 24.3242 21.1543 24.2185 21.3626 24.007C21.5709 23.7953 21.6751 23.5411 21.6751 23.2445C21.6751 22.9476 21.5693 22.6951 21.3578 22.4867C21.1462 22.2784 20.892 22.1742 20.5953 22.1742C20.2985 22.1742 20.0459 22.28 19.8376 22.4915C19.6293 22.7031 19.5251 22.9573 19.5251 23.254C19.5251 23.5508 19.6308 23.8034 19.8423 24.0117C20.054 24.2201 20.3082 24.3242 20.6048 24.3242ZM25.0798 24.3242C25.3767 24.3242 25.6293 24.2185 25.8376 24.007C26.0459 23.7953 26.1501 23.5411 26.1501 23.2445C26.1501 22.9476 26.0443 22.6951 25.8328 22.4867C25.6212 22.2784 25.367 22.1742 25.0703 22.1742C24.7735 22.1742 24.5209 22.28 24.3126 22.4915C24.1043 22.7031 24.0001 22.9573 24.0001 23.254C24.0001 23.5508 24.1058 23.8034 24.3173 24.0117C24.529 24.2201 24.7832 24.3242 25.0798 24.3242ZM29.3798 24.3242C29.6767 24.3242 29.9293 24.2185 30.1376 24.007C30.3459 23.7953 30.4501 23.5411 30.4501 23.2445C30.4501 22.9476 30.3443 22.6951 30.1328 22.4867C29.9212 22.2784 29.667 22.1742 29.3703 22.1742C29.0735 22.1742 28.8209 22.28 28.6126 22.4915C28.4043 22.7031 28.3001 22.9573 28.3001 23.254C28.3001 23.5508 28.4058 23.8034 28.6173 24.0117C28.829 24.2201 29.0832 24.3242 29.3798 24.3242Z" fill="white"/>
</svg>
