<svg width="39" height="39" viewBox="0 0 39 39" fill="none" xmlns="http://www.w3.org/2000/svg">
<path d="M18.3655 39V28.942L10.6655 36.623L9.0345 35.023L18.3655 25.6925V20.6345H13.3075L4.119 29.823L2.4575 28.254L10.058 20.6345H0V18.3655H10.058L2.346 10.6345L3.977 9.004L13.3075 18.3655H18.3655V13.277L9.177 4.0885L10.777 2.427L18.3655 10.008V0H20.6345V10.008L28.3655 2.3155L29.9655 3.946L20.6345 13.277V18.3655H25.723L34.9425 9.146L36.573 10.746L28.992 18.3655H39V20.6345H28.992L36.623 28.3345L35.054 29.9655L25.723 20.6345H20.6345V25.6925L29.9655 35.054L28.396 36.6845L20.6345 28.942V39H18.3655Z" fill="black"/>
</svg>
