<svg width="38" height="41" viewBox="0 0 38 41" fill="none" xmlns="http://www.w3.org/2000/svg">
<path d="M9.031 13.019L12.4925 9.596L9.031 6.1535L5.6075 9.596L9.031 13.019ZM0 23.9995V0H38V23.9995H28.0885C28.1858 23.6485 28.2595 23.2807 28.3095 22.896C28.3595 22.5113 28.3845 22.1228 28.3845 21.7305H35.7305V2.269H2.2695V21.7305H9.6155C9.6155 22.1228 9.6405 22.5113 9.6905 22.896C9.7405 23.2807 9.81417 23.6485 9.9115 23.9995H0ZM27.996 10.3075C28.644 10.3075 29.1945 10.0855 29.6475 9.6415C30.1005 9.1975 30.327 8.6515 30.327 8.0035C30.327 7.35583 30.1002 6.8055 29.6465 6.3525C29.1932 5.8995 28.6427 5.673 27.995 5.673C27.347 5.673 26.8012 5.89967 26.3575 6.353C25.9142 6.80667 25.6925 7.35733 25.6925 8.005C25.6925 8.65267 25.9145 9.19833 26.3585 9.642C26.8025 10.0857 27.3483 10.3075 27.996 10.3075ZM6 40.461V36.9535C6 35.9792 6.2705 35.0722 6.8115 34.2325C7.3525 33.3928 8.073 32.7678 8.973 32.3575C10.555 31.6292 12.1877 31.0798 13.871 30.7095C15.5543 30.3388 17.264 30.1535 19 30.1535C20.736 30.1535 22.4457 30.3388 24.129 30.7095C25.8123 31.0798 27.445 31.6292 29.027 32.3575C29.927 32.7678 30.6475 33.3913 31.1885 34.228C31.7295 35.0647 32 35.971 32 36.947V40.461H6ZM8.2695 38.192H29.7305V36.9535C29.7305 36.4188 29.5767 35.9288 29.269 35.4835C28.9613 35.0378 28.5498 34.6945 28.0345 34.4535C26.6142 33.7868 25.1483 33.2817 23.637 32.938C22.126 32.5943 20.5818 32.4225 19.0045 32.4225C17.4272 32.4225 15.8815 32.5943 14.3675 32.938C12.8532 33.2817 11.3858 33.7868 9.9655 34.4535C9.45017 34.6945 9.03867 35.0378 8.731 35.4835C8.42333 35.9288 8.2695 36.4188 8.2695 36.9535V38.192ZM19 27.769C17.336 27.769 15.92 27.185 14.752 26.017C13.584 24.849 13 23.433 13 21.769C13 20.105 13.584 18.689 14.752 17.521C15.92 16.353 17.336 15.769 19 15.769C20.664 15.769 22.08 16.353 23.248 17.521C24.416 18.689 25 20.105 25 21.769C25 23.433 24.416 24.849 23.248 26.017C22.08 27.185 20.664 27.769 19 27.769ZM18.986 25.5C20.0183 25.5 20.9005 25.1385 21.6325 24.4155C22.3645 23.6928 22.7305 22.8153 22.7305 21.783C22.7305 20.7507 22.3692 19.8685 21.6465 19.1365C20.9238 18.4045 20.0463 18.0385 19.014 18.0385C17.9817 18.0385 17.0995 18.3998 16.3675 19.1225C15.6355 19.8452 15.2695 20.7227 15.2695 21.755C15.2695 22.7873 15.6308 23.6695 16.3535 24.4015C17.0762 25.1338 17.9537 25.5 18.986 25.5Z" fill="white"/>
</svg>
