<svg width="27" height="34" viewBox="0 0 27 34" fill="none" xmlns="http://www.w3.org/2000/svg">
<path d="M2.709 33.3896V31.4038H12.1323V23.125H7.875C5.68983 23.125 3.83104 22.3588 2.29862 20.8264C0.766208 19.2943 0 17.4355 0 15.25C0 13.6009 0.492479 12.1101 1.47744 10.7774C2.4624 9.44481 3.72662 8.45431 5.27012 7.80594C5.52154 5.56244 6.3786 3.76314 7.84131 2.40806C9.30431 1.05269 11.0655 0.375 13.125 0.375C15.1845 0.375 16.9457 1.05269 18.4087 2.40806C19.8714 3.76314 20.7285 5.56244 20.9799 7.80594C22.5345 8.43185 23.8015 9.41681 24.7809 10.7608C25.7603 12.1045 26.25 13.6009 26.25 15.25C26.25 17.4355 25.4838 19.2943 23.9514 20.8264C22.419 22.3588 20.5602 23.125 18.375 23.125H14.1177V31.4038H23.8604V33.3896H2.709ZM7.875 21.1396H18.375C20.011 21.1396 21.4015 20.5668 22.5466 19.4211C23.6916 18.2755 24.2642 16.8842 24.2642 15.2474C24.2642 13.9906 23.8777 12.8675 23.1048 11.8782C22.3319 10.8886 21.3633 10.1515 20.1989 9.66706L19.1187 9.20419L18.9941 7.97744C18.7899 6.24086 18.1444 4.8706 17.0577 3.86669C15.9709 2.86277 14.66 2.36081 13.125 2.36081C11.59 2.36081 10.2791 2.86277 9.19231 3.86669C8.10556 4.8706 7.4601 6.24086 7.25594 7.97744L7.13125 9.20419L5.91631 9.73444C4.78552 10.2189 3.84767 10.9529 3.10275 11.9364C2.35812 12.9196 1.98581 14.026 1.98581 15.2557C1.98581 16.8782 2.55835 18.2645 3.70344 19.4146C4.84852 20.5646 6.23904 21.1396 7.875 21.1396Z" fill="black"/>
</svg>
