<svg width="44" height="22" viewBox="0 0 44 22" fill="none" xmlns="http://www.w3.org/2000/svg">
<path d="M11.004 13.7845C10.2347 13.7845 9.5775 13.5135 9.0325 12.9715C8.48783 12.4292 8.2155 11.7733 8.2155 11.004C8.2155 10.2347 8.4865 9.5775 9.0285 9.0325C9.57083 8.48783 10.2267 8.2155 10.996 8.2155C11.7653 8.2155 12.4225 8.4865 12.9675 9.0285C13.5122 9.57083 13.7845 10.2267 13.7845 10.996C13.7845 11.7653 13.5135 12.4225 12.9715 12.9675C12.4292 13.5122 11.7733 13.7845 11.004 13.7845ZM11 22C7.94867 22 5.3525 20.9295 3.2115 18.7885C1.0705 16.6475 0 14.0513 0 11C0 7.94867 1.0705 5.3525 3.2115 3.2115C5.3525 1.0705 7.94867 0 11 0C13.259 0 15.2532 0.566667 16.9825 1.7C18.7122 2.83333 20.0152 4.47317 20.8915 6.6195H39.0425L43.7885 11.3655L36.573 18.0345L32.577 15.104L28.4655 18.073L24.927 15.3805H20.896C20.1523 17.3038 18.9242 18.8878 17.2115 20.1325C15.4988 21.3775 13.4283 22 11 22ZM11 19.7305C12.959 19.7305 14.7198 19.0953 16.2825 17.825C17.8455 16.5543 18.8462 14.9832 19.2845 13.1115H25.7575L28.496 15.246L32.627 12.3075L36.419 15.177L40.5155 11.2845L38.119 8.8885H19.2885C18.9012 7.1115 17.9377 5.564 16.398 4.246C14.8583 2.92833 13.0607 2.2695 11.005 2.2695C8.57867 2.2695 6.51617 3.11783 4.8175 4.8145C3.11883 6.51117 2.2695 8.572 2.2695 10.997C2.2695 13.422 3.118 15.4838 4.815 17.1825C6.51233 18.8812 8.574 19.7305 11 19.7305Z" fill="black"/>
</svg>
