<svg width="38" height="36" viewBox="0 0 38 36" fill="none" xmlns="http://www.w3.org/2000/svg">
<path d="M0 24.096V21.827H9.923V17.769H4V15.5H12.1925V21.827H17.8655V7.296C17.8655 5.276 18.583 3.555 20.018 2.133C21.453 0.710999 23.1785 0 25.1945 0C26.5828 0 27.8487 0.356166 28.992 1.0685C30.135 1.78083 31.0197 2.75417 31.646 3.9885L33.554 7.823L31.477 8.846L29.6 5.0425C29.1727 4.2125 28.5568 3.54283 27.7525 3.0335C26.9482 2.52417 26.0813 2.2695 25.152 2.2695C23.7557 2.2695 22.5703 2.75667 21.596 3.731C20.6217 4.70533 20.1345 5.895 20.1345 7.3V21.827H25.8075V15.5H34V17.769H28.077V21.827H38V24.096H0ZM4 36V24.096H6.2695V33.7305H31.7305V24.096H34V36H4Z" fill="black"/>
</svg>
