<svg width="7" height="12" viewBox="0 0 7 12" fill="none" xmlns="http://www.w3.org/2000/svg">
<path d="M2.3749 5.94999L6.7249 10.3C6.89157 10.4833 6.97074 10.6958 6.9624 10.9375C6.95407 11.1792 6.86657 11.3917 6.6999 11.575C6.51657 11.7583 6.29574 11.85 6.0374 11.85C5.77907 11.85 5.56657 11.7583 5.3999 11.575L0.424902 6.59999C0.324902 6.51665 0.254069 6.42082 0.212402 6.31249C0.170736 6.20415 0.149902 6.08332 0.149902 5.94999C0.149902 5.83332 0.170736 5.72082 0.212402 5.61249C0.254069 5.50416 0.324902 5.40832 0.424902 5.32499L5.4249 0.324988C5.59157 0.141654 5.80407 0.0499878 6.0624 0.0499878C6.32074 0.0499878 6.54157 0.141654 6.7249 0.324988C6.89157 0.508321 6.9749 0.724988 6.9749 0.974988C6.9749 1.22499 6.89157 1.44165 6.7249 1.62499L2.3749 5.94999Z" fill="#5C5E62"/>
</svg>
