<svg width="38" height="39" viewBox="0 0 38 39" fill="none" xmlns="http://www.w3.org/2000/svg">
<path d="M0 38.4805L3.5965 20.5H33.9615L37.5575 38.4805H0ZM1.481 2.7885V0.519H7.1925V2.7885H1.481ZM2.8155 36.2115H17.654V30.6535H3.9345L2.8155 36.2115ZM6.527 13.596L4.896 12.015L8.9345 7.977L10.5655 9.5575L6.527 13.596ZM4.381 28.3845H17.654V22.769H5.5L4.381 28.3845ZM18.7885 8.8075C16.5015 8.8075 14.5688 7.99983 12.9905 6.3845C11.4122 4.76917 10.5757 2.80767 10.481 0.5H12.75C12.8243 2.17733 13.4385 3.603 14.5925 4.777C15.7468 5.95133 17.1463 6.5385 18.791 6.5385C20.4353 6.5385 21.8338 5.95133 22.9865 4.777C24.1392 3.603 24.7527 2.17733 24.827 0.5H27.096C27.0013 2.80767 26.1648 4.76917 24.5865 6.3845C23.0082 7.99983 21.0755 8.8075 18.7885 8.8075ZM17.654 17.7115V12H19.923V17.7115H17.654ZM19.923 36.2115H34.7425L33.623 30.6535H19.923V36.2115ZM19.923 28.3845H33.177L32.0575 22.769H19.923V28.3845ZM31.0885 13.5845L27.031 9.5265L28.6115 7.946L32.719 11.9535L31.0885 13.5845ZM30.3845 2.7885V0.519H36.096V2.7885H30.3845Z" fill="white"/>
</svg>
