<svg width="34" height="34" viewBox="0 0 34 34" fill="none" xmlns="http://www.w3.org/2000/svg">
<path d="M17.1115 34C14.7525 34 12.537 33.5507 10.465 32.652C8.39333 31.7533 6.5805 30.5353 5.0265 28.998C3.47283 27.461 2.24667 25.6533 1.348 23.575C0.449334 21.4967 0 19.278 0 16.919C0 14.573 0.449334 12.3743 1.348 10.323C2.24667 8.27167 3.47283 6.47933 5.0265 4.946C6.5805 3.41267 8.39333 2.205 10.465 1.323C12.537 0.441001 14.7525 0 17.1115 0C19.5728 0 21.9118 0.528832 24.1285 1.5865C26.3452 2.64417 28.2753 4.0935 29.919 5.9345V0.75H32.188V9.746H23.1805V7.477H28.219C26.778 5.89233 25.1043 4.62817 23.198 3.6845C21.2913 2.74117 19.2625 2.2695 17.1115 2.2695C13.0088 2.2695 9.50933 3.67517 6.613 6.4865C3.717 9.29817 2.269 12.7385 2.269 16.8075C2.269 20.9512 3.70683 24.4743 6.5825 27.377C9.45817 30.2793 12.9678 31.7305 17.1115 31.7305C21.0985 31.7305 24.4868 30.3505 27.2765 27.5905C30.0662 24.8302 31.538 21.4692 31.692 17.5075H33.961C33.833 22.1232 32.1413 26.0258 28.886 29.2155C25.631 32.4052 21.7062 34 17.1115 34ZM23.423 24.8615L15.896 17.4155V6.8885H18.165V16.473L25.0535 23.231L23.423 24.8615Z" fill="black"/>
</svg>
