<svg width="40" height="35" viewBox="0 0 40 35" fill="none" xmlns="http://www.w3.org/2000/svg">
<path d="M37.1201 15.4155V35H2.07007V15.377C1.14974 14.641 0.533071 13.7217 0.220071 12.619C-0.0925957 11.5167 -0.0720955 10.4013 0.281571 9.273L3.17757 0H35.9431L38.9586 9.273C39.3122 10.4013 39.3244 11.5232 38.9951 12.6385C38.6654 13.7538 38.0404 14.6795 37.1201 15.4155ZM24.0816 14.3655C25.2279 14.3655 26.1472 14.0232 26.8396 13.3385C27.5316 12.6538 27.8174 11.8808 27.6971 11.0195L26.3701 2.269H20.7546V10.7885C20.7546 11.7448 21.0732 12.5802 21.7106 13.2945C22.3476 14.0085 23.1379 14.3655 24.0816 14.3655ZM14.8276 14.3655C15.8636 14.3655 16.7322 14.0168 17.4336 13.3195C18.1349 12.6218 18.4856 11.7782 18.4856 10.7885V2.269H12.8506L11.5241 11.096C11.4164 11.8603 11.6817 12.5963 12.3201 13.304C12.9584 14.0117 13.7942 14.3655 14.8276 14.3655ZM5.78557 14.3655C6.66257 14.3655 7.42157 14.0648 8.06257 13.4635C8.70357 12.8622 9.0804 12.123 9.19307 11.246L10.5126 2.269H4.83907L2.52007 9.8C2.16107 10.9103 2.30407 11.9488 2.94907 12.9155C3.59374 13.8822 4.53924 14.3655 5.78557 14.3655ZM33.4046 14.3655C34.5609 14.3655 35.4924 13.9033 36.1991 12.979C36.9054 12.0547 37.0727 10.995 36.7011 9.8L34.3816 2.269H28.7086L30.0276 11.246C30.1532 12.123 30.5334 12.8622 31.1681 13.4635C31.8027 14.0648 32.5482 14.3655 33.4046 14.3655ZM4.33907 32.731H34.8511V16.4885C34.7687 16.5475 34.5834 16.5865 34.2951 16.6055C34.0067 16.6248 33.7099 16.6345 33.4046 16.6345C32.5586 16.6345 31.7701 16.4532 31.0391 16.0905C30.3084 15.7275 29.5957 15.1602 28.9011 14.3885C28.3804 15.0678 27.7264 15.612 26.9391 16.021C26.1521 16.43 25.2304 16.6345 24.1741 16.6345C23.2507 16.6345 22.4372 16.4737 21.7336 16.152C21.0296 15.83 20.3251 15.3165 19.6201 14.6115C19.0431 15.2755 18.3584 15.7787 17.5661 16.121C16.7737 16.4633 15.9392 16.6345 15.0626 16.6345C14.1059 16.6345 13.2276 16.4608 12.4276 16.1135C11.6276 15.7662 10.9442 15.1912 10.3776 14.3885C9.46224 15.2295 8.61807 15.8142 7.84507 16.1425C7.07207 16.4705 6.38557 16.6345 5.78557 16.6345C5.5009 16.6345 5.22774 16.6248 4.96607 16.6055C4.70474 16.5865 4.49574 16.5475 4.33907 16.4885V32.731Z" fill="white"/>
</svg>
