<svg width="39" height="31" viewBox="0 0 39 31" fill="none" xmlns="http://www.w3.org/2000/svg">
<path d="M22.2115 30.2765C20.3608 30.2765 18.811 29.652 17.562 28.403C16.313 27.154 15.6885 25.6042 15.6885 23.7535C15.6885 21.8902 16.313 20.334 17.562 19.085C18.811 17.836 20.3608 17.2115 22.2115 17.2115C23.0525 17.2115 23.8178 17.3493 24.5075 17.625C25.1972 17.9007 25.8498 18.3102 26.4655 18.8535V0H38.192V4.942H28.7345V23.7535C28.7345 25.6042 28.11 27.154 26.861 28.403C25.612 29.652 24.0622 30.2765 22.2115 30.2765ZM0 23.7535C0 20.5638 0.566667 17.6165 1.7 14.9115C2.83333 12.2062 4.39033 9.86 6.371 7.873C8.35167 5.88567 10.6965 4.33367 13.4055 3.217C16.1145 2.10033 19.0498 1.542 22.2115 1.542V3.8115C19.3652 3.8115 16.7248 4.3125 14.2905 5.3145C11.8562 6.3165 9.74517 7.711 7.9575 9.498C6.17017 11.2847 4.77517 13.3915 3.7725 15.8185C2.77017 18.2455 2.269 20.8905 2.269 23.7535H0ZM6.6925 23.7535C6.6925 21.4868 7.0815 19.4013 7.8595 17.497C8.6375 15.5927 9.71317 13.954 11.0865 12.581C12.4598 11.2077 14.0942 10.14 15.9895 9.378C17.8845 8.61567 19.9585 8.2345 22.2115 8.2345V10.5035C18.2782 10.5035 15.0865 11.7223 12.6365 14.16C10.1865 16.5977 8.9615 19.7955 8.9615 23.7535H6.6925Z" fill="black"/>
</svg>
