<svg width="15" height="18" viewBox="0 0 15 18" fill="none" xmlns="http://www.w3.org/2000/svg">
<g filter="url(#filter0_d_479_657)">
<path d="M8.6251 5.94999L4.2751 10.3C4.10843 10.4833 4.02926 10.6958 4.0376 10.9375C4.04593 11.1792 4.13343 11.3917 4.3001 11.575C4.48343 11.7583 4.70426 11.85 4.9626 11.85C5.22093 11.85 5.43343 11.7583 5.6001 11.575L10.5751 6.59999C10.6751 6.51665 10.7459 6.42082 10.7876 6.31249C10.8293 6.20415 10.8501 6.08332 10.8501 5.94999C10.8501 5.83332 10.8293 5.72082 10.7876 5.61249C10.7459 5.50416 10.6751 5.40832 10.5751 5.32499L5.5751 0.324988C5.40843 0.141654 5.19593 0.0499878 4.9376 0.0499878C4.67926 0.0499878 4.45843 0.141654 4.2751 0.324988C4.10843 0.508321 4.0251 0.724988 4.0251 0.974988C4.0251 1.22499 4.10843 1.44165 4.2751 1.62499L8.6251 5.94999Z" fill="#5C5E62"/>
</g>
<defs>
<filter id="filter0_d_479_657" x="0.0249023" y="0.0499878" width="14.8252" height="19.8" filterUnits="userSpaceOnUse" color-interpolation-filters="sRGB">
<feFlood flood-opacity="0" result="BackgroundImageFix"/>
<feColorMatrix in="SourceAlpha" type="matrix" values="0 0 0 0 0 0 0 0 0 0 0 0 0 0 0 0 0 0 127 0" result="hardAlpha"/>
<feOffset dy="4"/>
<feGaussianBlur stdDeviation="2"/>
<feComposite in2="hardAlpha" operator="out"/>
<feColorMatrix type="matrix" values="0 0 0 0 0 0 0 0 0 0 0 0 0 0 0 0 0 0 0.25 0"/>
<feBlend mode="normal" in2="BackgroundImageFix" result="effect1_dropShadow_479_657"/>
<feBlend mode="normal" in="SourceGraphic" in2="effect1_dropShadow_479_657" result="shape"/>
</filter>
</defs>
</svg>
