<svg width="42" height="39" viewBox="0 0 42 39" fill="none" xmlns="http://www.w3.org/2000/svg">
<path d="M19.7885 7.019V0H22.0575V7.019H19.7885ZM31.569 11.9155L29.969 10.2655L34.942 5.2925L36.542 6.9425L31.569 11.9155ZM34.8655 22.096V19.827H41.8845V22.096H34.8655ZM34.973 36.5805L30.019 31.6075L31.669 29.9575L36.623 34.9305L34.973 36.5805ZM10.296 11.9345L5.2845 6.923L6.904 5.3425L11.896 10.3345L10.296 11.9345ZM9.5 35.8075H18.1155C19.2905 35.8075 20.2893 35.3973 21.112 34.577C21.9347 33.7567 22.346 32.7605 22.346 31.5885C22.346 30.4165 21.9475 29.4145 21.1505 28.5825C20.3532 27.7505 19.3645 27.3345 18.1845 27.3345H16.196L15.4115 25.5155C14.8812 24.2982 14.0653 23.331 12.964 22.614C11.863 21.897 10.6442 21.5385 9.3075 21.5385C7.35017 21.5385 5.68783 22.221 4.3205 23.586C2.95283 24.9513 2.269 26.611 2.269 28.565C2.269 30.583 2.96883 32.2947 4.3685 33.7C5.76817 35.105 7.47867 35.8075 9.5 35.8075ZM9.5 38.077C6.87433 38.077 4.63467 37.15 2.781 35.296C0.927 33.4423 0 31.2027 0 28.577C0 25.9897 0.9045 23.7915 2.7135 21.9825C4.5225 20.1735 6.7205 19.269 9.3075 19.269C11.1552 19.269 12.8408 19.798 14.3645 20.856C15.8882 21.9137 16.9948 23.3168 17.6845 25.0655C19.5475 25.0655 21.1548 25.683 22.5065 26.918C23.8585 28.153 24.5345 29.7713 24.5345 31.773C24.4192 33.5243 23.7558 35.0128 22.5445 36.2385C21.3332 37.4642 19.8568 38.077 18.1155 38.077H9.5ZM24.496 31.3885C24.4217 31.0038 24.3442 30.6288 24.2635 30.2635C24.1825 29.8982 24.1048 29.5232 24.0305 29.1385C25.7255 28.4718 27.0865 27.3987 28.1135 25.919C29.1402 24.4397 29.6535 22.7895 29.6535 20.9685C29.6535 18.5408 28.8042 16.4777 27.1055 14.779C25.4068 13.0803 23.346 12.231 20.923 12.231C18.708 12.231 16.7763 12.9485 15.128 14.3835C13.4797 15.8188 12.5383 17.6243 12.304 19.8C11.9117 19.7127 11.518 19.637 11.123 19.573C10.7283 19.509 10.3348 19.4333 9.9425 19.346C10.3322 16.618 11.5725 14.3718 13.6635 12.6075C15.7545 10.8435 18.1743 9.9615 20.923 9.9615C23.9743 9.9615 26.5705 11.032 28.7115 13.173C30.8525 15.314 31.923 17.9158 31.923 20.9785C31.923 23.3492 31.2422 25.4813 29.8805 27.375C28.5192 29.2687 26.7243 30.6065 24.496 31.3885Z" fill="black"/>
</svg>
