<svg width="18" height="18" viewBox="0 0 18 18" fill="none" xmlns="http://www.w3.org/2000/svg">
<path d="M8.31242 9.85415V12.5625C8.31242 12.7812 8.38784 12.9644 8.53867 13.1119C8.6895 13.2595 8.87006 13.3333 9.08034 13.3333C9.29061 13.3333 9.46867 13.2595 9.6145 13.1119C9.76034 12.9644 9.83325 12.7812 9.83325 12.5625V9.85415H12.5833C12.7885 9.85415 12.9648 9.77873 13.1122 9.6279C13.2596 9.47706 13.3333 9.29651 13.3333 9.08623C13.3333 8.87595 13.2596 8.6979 13.1122 8.55206C12.9648 8.40623 12.7885 8.33331 12.5833 8.33331H9.83325V5.41665C9.83325 5.21137 9.75909 5.03505 9.61075 4.88769C9.46256 4.74033 9.28332 4.66665 9.07304 4.66665C8.86277 4.66665 8.68339 4.74033 8.53492 4.88769C8.38659 5.03505 8.31242 5.21137 8.31242 5.41665V8.33331H5.43742C5.21867 8.33331 5.03554 8.40748 4.88804 8.55581C4.7404 8.70401 4.66659 8.88324 4.66659 9.09352C4.66659 9.3038 4.7404 9.48317 4.88804 9.63165C5.03554 9.77998 5.21867 9.85415 5.43742 9.85415H8.31242ZM8.99596 17.6666C7.80263 17.6666 6.68096 17.4373 5.63096 16.9787C4.58082 16.5201 3.66464 15.8997 2.88242 15.1175C2.1002 14.3353 1.47978 13.4177 1.02117 12.3648C0.562557 11.3119 0.333252 10.1868 0.333252 8.98956C0.333252 7.79387 0.562974 6.67019 1.02242 5.61852C1.48186 4.56685 2.10464 3.64804 2.89075 2.86206C3.677 2.07609 4.59409 1.45811 5.642 1.0081C6.68992 0.558244 7.80964 0.333313 9.00117 0.333313C10.1977 0.333313 11.3239 0.558244 12.3797 1.0081C13.4355 1.45811 14.355 2.07616 15.138 2.86227C15.921 3.64852 16.5381 4.5697 16.9895 5.62581C17.4409 6.68192 17.6666 7.80859 17.6666 9.00581C17.6666 10.2029 17.4417 11.323 16.9918 12.366C16.5418 13.4092 15.9238 14.3225 15.1378 15.1058C14.3519 15.889 13.4309 16.5116 12.3749 16.9737C11.3191 17.4357 10.1928 17.6666 8.99596 17.6666ZM9.01034 16.1458C10.9827 16.1458 12.6651 15.4462 14.0574 14.0471C15.4496 12.6478 16.1458 10.9619 16.1458 8.98956C16.1458 7.0172 15.4509 5.33484 14.0612 3.94248C12.6716 2.55026 10.9845 1.85415 8.99992 1.85415C7.0345 1.85415 5.35214 2.54901 3.95284 3.93873C2.55367 5.32831 1.85409 7.0154 1.85409 8.99998C1.85409 10.9654 2.55367 12.6478 3.95284 14.0471C5.35214 15.4462 7.03797 16.1458 9.01034 16.1458Z" fill="#393C41"/>
</svg>
