<svg width="18" height="18" viewBox="0 0 18 18" fill="none" xmlns="http://www.w3.org/2000/svg">
<path d="M8.31242 9.85287V12.5612C8.31242 12.7799 8.38784 12.9631 8.53867 13.1106C8.6895 13.2582 8.87006 13.332 9.08034 13.332C9.29061 13.332 9.46867 13.2582 9.6145 13.1106C9.76034 12.9631 9.83325 12.7799 9.83325 12.5612V9.85287H12.5833C12.7885 9.85287 12.9648 9.77745 13.1122 9.62662C13.2596 9.47578 13.3333 9.29523 13.3333 9.08495C13.3333 8.87467 13.2596 8.69662 13.1122 8.55078C12.9648 8.40495 12.7885 8.33203 12.5833 8.33203H9.83325V5.41536C9.83325 5.21009 9.75909 5.03377 9.61075 4.88641C9.46256 4.73905 9.28332 4.66536 9.07304 4.66536C8.86277 4.66536 8.68339 4.73905 8.53492 4.88641C8.38659 5.03377 8.31242 5.21009 8.31242 5.41536V8.33203H5.43742C5.21867 8.33203 5.03554 8.4062 4.88804 8.55453C4.74041 8.70273 4.66659 8.88196 4.66659 9.09224C4.66659 9.30252 4.74041 9.48189 4.88804 9.63037C5.03554 9.7787 5.21867 9.85287 5.43742 9.85287H8.31242ZM8.99596 17.6654C7.80263 17.6654 6.68096 17.4361 5.63096 16.9774C4.58082 16.5188 3.66464 15.8984 2.88242 15.1162C2.1002 14.334 1.47978 13.4164 1.02117 12.3635C0.562557 11.3106 0.333252 10.1855 0.333252 8.98828C0.333252 7.79259 0.562974 6.66891 1.02242 5.61724C1.48186 4.56557 2.10464 3.64675 2.89075 2.86078C3.677 2.07481 4.59409 1.45682 5.642 1.00682C6.68992 0.556962 7.80964 0.332031 9.00117 0.332031C10.1977 0.332031 11.3239 0.556962 12.3797 1.00682C13.4355 1.45682 14.355 2.07488 15.138 2.86099C15.921 3.64724 16.5381 4.56842 16.9895 5.62453C17.4409 6.68064 17.6666 7.80731 17.6666 9.00453C17.6666 10.2016 17.4417 11.3217 16.9918 12.3647C16.5418 13.4079 15.9238 14.3212 15.1378 15.1045C14.3519 15.8877 13.4309 16.5104 12.3749 16.9724C11.3191 17.4344 10.1928 17.6654 8.99596 17.6654Z" fill="#393C41"/>
</svg>
