<svg width="19" height="19" viewBox="0 0 19 19" fill="none" xmlns="http://www.w3.org/2000/svg">
<path d="M9.5 19C8.177 19 6.93758 18.7503 5.78175 18.251C4.62592 17.7517 3.61883 17.0744 2.7605 16.2193C1.90217 15.3641 1.2275 14.3561 0.7365 13.1953C0.2455 12.0343 0 10.789 0 9.4595C0 8.1365 0.2455 6.89967 0.7365 5.749C1.2275 4.59833 1.90217 3.5955 2.7605 2.7405C3.61883 1.88533 4.62592 1.21483 5.78175 0.728999C6.93758 0.242999 8.177 0 9.5 0C10.823 0 12.0624 0.242999 13.2182 0.728999C14.3741 1.21483 15.3812 1.88533 16.2395 2.7405C17.0978 3.5955 17.7725 4.59833 18.2635 5.749C18.7545 6.89967 19 8.1365 19 9.4595C19 10.789 18.7545 12.0343 18.2635 13.1953C17.7725 14.3561 17.0978 15.3641 16.2395 16.2193C15.3812 17.0744 14.3741 17.7517 13.2182 18.251C12.0624 18.7503 10.823 19 9.5 19ZM9.5 17.9153C10.1218 17.2447 10.6333 16.5173 11.0345 15.7327C11.4358 14.9481 11.7647 14.0288 12.0212 12.975H6.99425C7.24675 14.0135 7.57367 14.9311 7.975 15.7277C8.37633 16.5246 8.88467 17.2537 9.5 17.9153ZM7.9135 17.7115C7.4455 17.1038 7.03108 16.3965 6.67025 15.5895C6.30925 14.7823 6.02558 13.9108 5.81925 12.975H1.8385C2.47817 14.2673 3.282 15.2878 4.25 16.0365C5.218 16.7853 6.43917 17.3437 7.9135 17.7115ZM11.1115 17.6962C12.4205 17.4026 13.6038 16.8468 14.6615 16.0288C15.7192 15.2109 16.5525 14.193 17.1615 12.975H13.1962C12.9474 13.9135 12.6468 14.7831 12.2943 15.5837C11.9416 16.3842 11.5473 17.0884 11.1115 17.6962ZM1.473 11.8405H5.6115C5.54867 11.384 5.50833 10.9637 5.4905 10.5798C5.4725 10.1958 5.4635 9.82233 5.4635 9.4595C5.4635 9.05567 5.475 8.67367 5.498 8.3135C5.52117 7.95317 5.56417 7.56342 5.627 7.14425H1.473C1.35 7.53142 1.26283 7.90575 1.2115 8.26725C1.16033 8.62875 1.13475 9.02617 1.13475 9.4595C1.13475 9.89933 1.16033 10.3077 1.2115 10.6845C1.26283 11.0615 1.35 11.4468 1.473 11.8405ZM6.777 11.8405H12.2385C12.3115 11.3367 12.3596 10.9078 12.3828 10.5538C12.4058 10.1999 12.4173 9.83517 12.4173 9.4595C12.4173 9.10067 12.4058 8.751 12.3828 8.4105C12.3596 8.07017 12.3115 7.64808 12.2385 7.14425H6.777C6.70383 7.64808 6.65575 8.07017 6.63275 8.4105C6.60958 8.751 6.598 9.10067 6.598 9.4595C6.598 9.83517 6.60958 10.1999 6.63275 10.5538C6.65575 10.9078 6.70383 11.3367 6.777 11.8405ZM13.373 11.8405H17.527C17.65 11.4468 17.7372 11.0615 17.7885 10.6845C17.8397 10.3077 17.8652 9.89933 17.8652 9.4595C17.8652 9.02617 17.8397 8.62875 17.7885 8.26725C17.7372 7.90575 17.65 7.53142 17.527 7.14425H13.398C13.4545 7.69558 13.4943 8.14458 13.5173 8.49125C13.5404 8.83808 13.552 9.16083 13.552 9.4595C13.552 9.83267 13.5378 10.1993 13.5095 10.5595C13.4813 10.9198 13.4358 11.3468 13.373 11.8405ZM13.1807 6.00975H17.1615C16.573 4.73142 15.7579 3.68808 14.7163 2.87975C13.6746 2.07142 12.4647 1.53775 11.0865 1.27875C11.5545 1.90825 11.9632 2.615 12.3125 3.399C12.6618 4.183 12.9513 5.05325 13.1807 6.00975ZM6.99425 6.00975H12.0462C11.8244 5.06858 11.4952 4.18075 11.0587 3.34625C10.6221 2.51158 10.1025 1.768 9.5 1.1155C8.93467 1.636 8.45742 2.27892 8.06825 3.04425C7.67908 3.80958 7.32108 4.79808 6.99425 6.00975ZM1.8385 6.00975H5.83475C6.04358 5.08408 6.31858 4.23342 6.65975 3.45775C7.00075 2.68208 7.41033 1.96092 7.8885 1.29425C6.51033 1.55958 5.30967 2.08967 4.2865 2.8845C3.2635 3.6795 2.4475 4.72125 1.8385 6.00975Z" fill="#393C41"/>
</svg>
