<svg width="80" height="56" viewBox="0 0 80 56" fill="none" xmlns="http://www.w3.org/2000/svg">
<path d="M27.2872 45.2121L72.2044 1.21212C73.0591 0.40404 74.1183 0 75.3821 0C76.6458 0 77.7315 0.397579 78.6389 1.19273C79.5463 2.06869 80 3.1394 80 4.40485C80 5.67031 79.5463 6.70707 78.6389 7.51515L30.5044 54.6667C29.6118 55.5556 28.5431 56 27.2983 56C26.0535 56 25.0186 55.5556 24.1937 54.6667L1.30195 32.2424C0.39453 31.4505 -0.0385564 30.4242 0.00268998 29.1636C0.0439363 27.903 0.51167 26.8283 1.40589 25.9394C2.21762 25.1313 3.2694 24.7273 4.56124 24.7273C5.85307 24.7273 6.9527 25.1313 7.86012 25.9394L27.2872 45.2121Z" fill="#12BB00"/>
</svg>
