<svg width="11" height="9" viewBox="0 0 11 9" fill="none" xmlns="http://www.w3.org/2000/svg">
<path d="M3.57018 6.19956L9.50439 0.265351C9.68129 0.0884503 9.88231 0 10.1075 0C10.3326 0 10.5417 0.0884503 10.7346 0.265351C10.9115 0.458333 11 0.667398 11 0.892544C11 1.11769 10.9115 1.31871 10.7346 1.49561L4.19737 8.0329C4.02047 8.2098 3.8114 8.29825 3.57018 8.29825C3.32895 8.29825 3.12792 8.2098 2.96711 8.0329L0.289474 5.35526C0.0964912 5.17836 0 4.97734 0 4.75219C0 4.52705 0.0964912 4.31798 0.289474 4.125C0.466374 3.9481 0.667398 3.85965 0.892544 3.85965C1.11769 3.85965 1.32675 3.9481 1.51974 4.125L3.57018 6.19956Z" fill="#393C41"/>
</svg>
